<svg width="20" height="20" viewBox="0 0 20 20" xmlns="http://www.w3.org/2000/svg">
    <g transform="translate(1.023 .999)" fill="#544E4B" fill-rule="nonzero">
        <path d="M8.76 1.56c2.34 0 2.64 0 3.54.06.54 0 1.08.12 1.62.3.78.3 1.38.9 1.68 1.68.18.54.3 1.08.3 1.62.06.9.06 1.2.06 3.54s0 2.64-.06 3.54c0 .54-.12 1.08-.3 1.62a2.9 2.9 0 0 1-1.68 1.68c-.54.18-1.08.3-1.62.3-.9.06-1.2.06-3.54.06s-2.64 0-3.54-.06c-.54 0-1.08-.12-1.62-.3a2.9 2.9 0 0 1-1.68-1.68c-.18-.54-.3-1.08-.3-1.62-.06-.9-.06-1.2-.06-3.54s0-2.64.06-3.54c0-.54.12-1.08.3-1.62.3-.78.9-1.38 1.68-1.68.54-.18 1.08-.3 1.62-.3.9 0 1.2-.06 3.54-.06m0-1.56c-2.4 0-2.7 0-3.6.06-.72 0-1.44.18-2.1.42A4.55 4.55 0 0 0 .48 3.06c-.24.66-.42 1.38-.42 2.1C0 6.12 0 6.42 0 8.76s0 2.7.06 3.6c0 .72.18 1.44.42 2.1a4.55 4.55 0 0 0 2.58 2.58c.66.24 1.38.42 2.1.42.96.06 1.26.06 3.6.06s2.7 0 3.6-.06c.72 0 1.44-.18 2.1-.42a4.55 4.55 0 0 0 2.58-2.58c.24-.66.42-1.38.42-2.1.06-.96.06-1.26.06-3.6s0-2.7-.06-3.6c0-.72-.18-1.44-.42-2.1A4.55 4.55 0 0 0 14.46.48c-.66-.24-1.38-.42-2.1-.42C11.4 0 11.1 0 8.76 0z"/>
        <path d="M8.76 4.26c-2.46 0-4.5 2.04-4.5 4.5s2.04 4.5 4.5 4.5 4.5-2.04 4.5-4.5-2.04-4.5-4.5-4.5zm0 7.44c-1.62 0-2.94-1.32-2.94-2.94 0-1.62 1.32-2.94 2.94-2.94 1.62 0 2.94 1.32 2.94 2.94-.06 1.62-1.32 2.94-2.94 2.94z"/>
        <circle cx="13.44" cy="4.08" r="1.08"/>
    </g>
</svg>
